<mxfile host="Electron" modified="2023-10-13T18:20:21.997Z" agent="Mozilla/5.0 (Windows NT 10.0; Win64; x64) AppleWebKit/537.36 (KHTML, like Gecko) draw.io/22.0.2 Chrome/114.0.5735.289 Electron/25.8.4 Safari/537.36" etag="4RjnoH7U_qpuP3q7BXIK" version="22.0.2" type="device">
  <diagram name="Strona-1" id="HQk_NAr-7VYPY3NPSf8j">
    <mxGraphModel dx="1295" dy="758" grid="1" gridSize="10" guides="1" tooltips="1" connect="1" arrows="1" fold="1" page="1" pageScale="1" pageWidth="827" pageHeight="1169" math="0" shadow="0">
      <root>
        <mxCell id="0" />
        <mxCell id="1" parent="0" />
        <mxCell id="fDg9fR9CH7GSIyTaq-c--17" value="Klienci" style="whiteSpace=wrap;html=1;align=center;fillColor=#ffe6cc;strokeColor=#d79b00;" parent="1" vertex="1">
          <mxGeometry x="560" y="130" width="100" height="40" as="geometry" />
        </mxCell>
        <mxCell id="fDg9fR9CH7GSIyTaq-c--18" value="Czekoladki" style="whiteSpace=wrap;html=1;align=center;fillColor=#ffe6cc;strokeColor=#d79b00;" parent="1" vertex="1">
          <mxGeometry x="170" y="788" width="100" height="40" as="geometry" />
        </mxCell>
        <mxCell id="fDg9fR9CH7GSIyTaq-c--19" value="Pudelka" style="whiteSpace=wrap;html=1;align=center;fillColor=#ffe6cc;strokeColor=#d79b00;" parent="1" vertex="1">
          <mxGeometry x="150" y="460" width="100" height="40" as="geometry" />
        </mxCell>
        <mxCell id="fDg9fR9CH7GSIyTaq-c--26" value="Rodzaj" style="ellipse;whiteSpace=wrap;html=1;align=center;fillColor=#dae8fc;strokeColor=#6c8ebf;" parent="1" vertex="1">
          <mxGeometry x="10" y="860" width="100" height="40" as="geometry" />
        </mxCell>
        <mxCell id="fDg9fR9CH7GSIyTaq-c--27" value="Sztuk" style="ellipse;whiteSpace=wrap;html=1;align=center;fillColor=#dae8fc;strokeColor=#6c8ebf;" parent="1" vertex="1">
          <mxGeometry x="170" y="50" width="100" height="40" as="geometry" />
        </mxCell>
        <mxCell id="fDg9fR9CH7GSIyTaq-c--28" value="IDCzekoladki" style="ellipse;whiteSpace=wrap;html=1;align=center;fontStyle=4;fillColor=#dae8fc;strokeColor=#6c8ebf;" parent="1" vertex="1">
          <mxGeometry x="20" y="800" width="100" height="40" as="geometry" />
        </mxCell>
        <mxCell id="fDg9fR9CH7GSIyTaq-c--38" value="RodzajCzekolady" style="ellipse;whiteSpace=wrap;html=1;align=center;fillColor=#dae8fc;strokeColor=#6c8ebf;" parent="1" vertex="1">
          <mxGeometry x="110" y="950" width="100" height="40" as="geometry" />
        </mxCell>
        <mxCell id="fDg9fR9CH7GSIyTaq-c--39" value="" style="endArrow=none;html=1;rounded=0;" parent="1" source="fDg9fR9CH7GSIyTaq-c--18" target="fDg9fR9CH7GSIyTaq-c--26" edge="1">
          <mxGeometry relative="1" as="geometry">
            <mxPoint x="410" y="710" as="sourcePoint" />
            <mxPoint x="570" y="710" as="targetPoint" />
          </mxGeometry>
        </mxCell>
        <mxCell id="fDg9fR9CH7GSIyTaq-c--40" value="" style="endArrow=none;html=1;rounded=0;" parent="1" source="fDg9fR9CH7GSIyTaq-c--18" target="fDg9fR9CH7GSIyTaq-c--38" edge="1">
          <mxGeometry relative="1" as="geometry">
            <mxPoint x="410" y="710" as="sourcePoint" />
            <mxPoint x="570" y="710" as="targetPoint" />
          </mxGeometry>
        </mxCell>
        <mxCell id="fDg9fR9CH7GSIyTaq-c--41" value="RodzajOrzechow" style="ellipse;whiteSpace=wrap;html=1;align=center;fillColor=#dae8fc;strokeColor=#6c8ebf;" parent="1" vertex="1">
          <mxGeometry x="220" y="940" width="100" height="40" as="geometry" />
        </mxCell>
        <mxCell id="fDg9fR9CH7GSIyTaq-c--42" value="RodzajNasienia&amp;nbsp;" style="ellipse;whiteSpace=wrap;html=1;align=center;fillColor=#dae8fc;strokeColor=#6c8ebf;" parent="1" vertex="1">
          <mxGeometry x="320" y="910" width="100" height="40" as="geometry" />
        </mxCell>
        <mxCell id="fDg9fR9CH7GSIyTaq-c--43" value="Opis" style="ellipse;whiteSpace=wrap;html=1;align=center;fillColor=#dae8fc;strokeColor=#6c8ebf;" parent="1" vertex="1">
          <mxGeometry x="130" y="690" width="100" height="40" as="geometry" />
        </mxCell>
        <mxCell id="fDg9fR9CH7GSIyTaq-c--44" value="Masa" style="ellipse;whiteSpace=wrap;html=1;align=center;fillColor=#dae8fc;strokeColor=#6c8ebf;" parent="1" vertex="1">
          <mxGeometry x="30" y="730" width="100" height="40" as="geometry" />
        </mxCell>
        <mxCell id="fDg9fR9CH7GSIyTaq-c--45" value="Koszt" style="ellipse;whiteSpace=wrap;html=1;align=center;fillColor=#dae8fc;strokeColor=#6c8ebf;" parent="1" vertex="1">
          <mxGeometry x="30" y="910" width="100" height="40" as="geometry" />
        </mxCell>
        <mxCell id="fDg9fR9CH7GSIyTaq-c--46" value="Nazwa" style="ellipse;whiteSpace=wrap;html=1;align=center;fillColor=#dae8fc;strokeColor=#6c8ebf;" parent="1" vertex="1">
          <mxGeometry x="430" y="20" width="100" height="40" as="geometry" />
        </mxCell>
        <mxCell id="fDg9fR9CH7GSIyTaq-c--48" value="IDKlienta" style="ellipse;whiteSpace=wrap;html=1;align=center;fontStyle=4;fillColor=#dae8fc;strokeColor=#6c8ebf;" parent="1" vertex="1">
          <mxGeometry x="550" y="20" width="100" height="40" as="geometry" />
        </mxCell>
        <mxCell id="fDg9fR9CH7GSIyTaq-c--49" value="Ulica" style="ellipse;whiteSpace=wrap;html=1;align=center;fillColor=#dae8fc;strokeColor=#6c8ebf;" parent="1" vertex="1">
          <mxGeometry x="670" y="20" width="100" height="40" as="geometry" />
        </mxCell>
        <mxCell id="fDg9fR9CH7GSIyTaq-c--50" value="Miejscowosc" style="ellipse;whiteSpace=wrap;html=1;align=center;fillColor=#dae8fc;strokeColor=#6c8ebf;" parent="1" vertex="1">
          <mxGeometry x="720" y="90" width="100" height="40" as="geometry" />
        </mxCell>
        <mxCell id="fDg9fR9CH7GSIyTaq-c--51" value="Telefon" style="ellipse;whiteSpace=wrap;html=1;align=center;fillColor=#dae8fc;strokeColor=#6c8ebf;" parent="1" vertex="1">
          <mxGeometry x="390" y="90" width="100" height="40" as="geometry" />
        </mxCell>
        <mxCell id="fDg9fR9CH7GSIyTaq-c--52" value="Kod" style="ellipse;whiteSpace=wrap;html=1;align=center;fillColor=#dae8fc;strokeColor=#6c8ebf;" parent="1" vertex="1">
          <mxGeometry x="530" y="200" width="100" height="40" as="geometry" />
        </mxCell>
        <mxCell id="fDg9fR9CH7GSIyTaq-c--53" value="Stan" style="ellipse;whiteSpace=wrap;html=1;align=center;fillColor=#dae8fc;strokeColor=#6c8ebf;" parent="1" vertex="1">
          <mxGeometry x="150" y="340" width="100" height="40" as="geometry" />
        </mxCell>
        <mxCell id="fDg9fR9CH7GSIyTaq-c--54" value="IDPudelka" style="ellipse;whiteSpace=wrap;html=1;align=center;fontStyle=4;fillColor=#dae8fc;strokeColor=#6c8ebf;" parent="1" vertex="1">
          <mxGeometry x="140" y="550" width="100" height="40" as="geometry" />
        </mxCell>
        <mxCell id="fDg9fR9CH7GSIyTaq-c--55" value="Nazwa" style="ellipse;whiteSpace=wrap;html=1;align=center;fillColor=#dae8fc;strokeColor=#6c8ebf;" parent="1" vertex="1">
          <mxGeometry x="20" y="510" width="100" height="40" as="geometry" />
        </mxCell>
        <mxCell id="fDg9fR9CH7GSIyTaq-c--56" value="Opis" style="ellipse;whiteSpace=wrap;html=1;align=center;fillColor=#dae8fc;strokeColor=#6c8ebf;" parent="1" vertex="1">
          <mxGeometry x="20" y="450" width="100" height="40" as="geometry" />
        </mxCell>
        <mxCell id="fDg9fR9CH7GSIyTaq-c--57" value="Cena" style="ellipse;whiteSpace=wrap;html=1;align=center;fillColor=#dae8fc;strokeColor=#6c8ebf;" parent="1" vertex="1">
          <mxGeometry x="20" y="380" width="100" height="40" as="geometry" />
        </mxCell>
        <mxCell id="fDg9fR9CH7GSIyTaq-c--58" style="edgeStyle=orthogonalEdgeStyle;rounded=0;orthogonalLoop=1;jettySize=auto;html=1;exitX=0.5;exitY=1;exitDx=0;exitDy=0;" parent="1" source="fDg9fR9CH7GSIyTaq-c--56" target="fDg9fR9CH7GSIyTaq-c--56" edge="1">
          <mxGeometry relative="1" as="geometry" />
        </mxCell>
        <mxCell id="fDg9fR9CH7GSIyTaq-c--59" value="IDZamowienia" style="ellipse;whiteSpace=wrap;html=1;align=center;fontStyle=4;fillColor=#dae8fc;strokeColor=#6c8ebf;" parent="1" vertex="1">
          <mxGeometry x="700" y="450" width="100" height="40" as="geometry" />
        </mxCell>
        <mxCell id="fDg9fR9CH7GSIyTaq-c--60" value="DataRealizacji" style="ellipse;whiteSpace=wrap;html=1;align=center;fillColor=#dae8fc;strokeColor=#6c8ebf;" parent="1" vertex="1">
          <mxGeometry x="460" y="280" width="100" height="40" as="geometry" />
        </mxCell>
        <mxCell id="fDg9fR9CH7GSIyTaq-c--65" value="Sztuk" style="ellipse;whiteSpace=wrap;html=1;align=center;fillColor=#dae8fc;strokeColor=#6c8ebf;" parent="1" vertex="1">
          <mxGeometry x="710" y="700" width="100" height="40" as="geometry" />
        </mxCell>
        <mxCell id="fDg9fR9CH7GSIyTaq-c--68" value="Artykuly" style="shape=ext;margin=3;double=1;whiteSpace=wrap;html=1;align=center;fillColor=#ffe6cc;strokeColor=#d79b00;" parent="1" vertex="1">
          <mxGeometry x="160" y="140" width="100" height="40" as="geometry" />
        </mxCell>
        <mxCell id="fDg9fR9CH7GSIyTaq-c--70" value="" style="endArrow=none;html=1;rounded=0;" parent="1" source="fDg9fR9CH7GSIyTaq-c--19" target="fDg9fR9CH7GSIyTaq-c--57" edge="1">
          <mxGeometry relative="1" as="geometry">
            <mxPoint x="300" y="300" as="sourcePoint" />
            <mxPoint x="460" y="300" as="targetPoint" />
          </mxGeometry>
        </mxCell>
        <mxCell id="fDg9fR9CH7GSIyTaq-c--71" value="" style="endArrow=none;html=1;rounded=0;" parent="1" source="fDg9fR9CH7GSIyTaq-c--53" target="fDg9fR9CH7GSIyTaq-c--19" edge="1">
          <mxGeometry relative="1" as="geometry">
            <mxPoint x="300" y="300" as="sourcePoint" />
            <mxPoint x="460" y="300" as="targetPoint" />
          </mxGeometry>
        </mxCell>
        <mxCell id="fDg9fR9CH7GSIyTaq-c--73" value="" style="endArrow=none;html=1;rounded=0;" parent="1" source="fDg9fR9CH7GSIyTaq-c--52" target="fDg9fR9CH7GSIyTaq-c--17" edge="1">
          <mxGeometry relative="1" as="geometry">
            <mxPoint x="300" y="300" as="sourcePoint" />
            <mxPoint x="460" y="300" as="targetPoint" />
          </mxGeometry>
        </mxCell>
        <mxCell id="fDg9fR9CH7GSIyTaq-c--74" value="" style="endArrow=none;html=1;rounded=0;" parent="1" source="fDg9fR9CH7GSIyTaq-c--50" target="fDg9fR9CH7GSIyTaq-c--17" edge="1">
          <mxGeometry relative="1" as="geometry">
            <mxPoint x="300" y="300" as="sourcePoint" />
            <mxPoint x="460" y="300" as="targetPoint" />
          </mxGeometry>
        </mxCell>
        <mxCell id="fDg9fR9CH7GSIyTaq-c--75" value="" style="endArrow=none;html=1;rounded=0;" parent="1" source="fDg9fR9CH7GSIyTaq-c--49" target="fDg9fR9CH7GSIyTaq-c--17" edge="1">
          <mxGeometry relative="1" as="geometry">
            <mxPoint x="300" y="300" as="sourcePoint" />
            <mxPoint x="460" y="300" as="targetPoint" />
          </mxGeometry>
        </mxCell>
        <mxCell id="fDg9fR9CH7GSIyTaq-c--76" value="" style="endArrow=none;html=1;rounded=0;" parent="1" source="fDg9fR9CH7GSIyTaq-c--48" target="fDg9fR9CH7GSIyTaq-c--17" edge="1">
          <mxGeometry relative="1" as="geometry">
            <mxPoint x="300" y="300" as="sourcePoint" />
            <mxPoint x="460" y="300" as="targetPoint" />
          </mxGeometry>
        </mxCell>
        <mxCell id="fDg9fR9CH7GSIyTaq-c--77" value="" style="endArrow=none;html=1;rounded=0;" parent="1" source="fDg9fR9CH7GSIyTaq-c--46" target="fDg9fR9CH7GSIyTaq-c--17" edge="1">
          <mxGeometry relative="1" as="geometry">
            <mxPoint x="300" y="300" as="sourcePoint" />
            <mxPoint x="460" y="300" as="targetPoint" />
          </mxGeometry>
        </mxCell>
        <mxCell id="fDg9fR9CH7GSIyTaq-c--78" value="" style="endArrow=none;html=1;rounded=0;" parent="1" source="fDg9fR9CH7GSIyTaq-c--17" target="fDg9fR9CH7GSIyTaq-c--51" edge="1">
          <mxGeometry relative="1" as="geometry">
            <mxPoint x="300" y="300" as="sourcePoint" />
            <mxPoint x="460" y="300" as="targetPoint" />
          </mxGeometry>
        </mxCell>
        <mxCell id="fDg9fR9CH7GSIyTaq-c--79" value="" style="endArrow=none;html=1;rounded=0;" parent="1" source="fDg9fR9CH7GSIyTaq-c--68" target="h8aALMjT6Rtvr6aibmoU-8" edge="1">
          <mxGeometry relative="1" as="geometry">
            <mxPoint x="300" y="300" as="sourcePoint" />
            <mxPoint x="96.41509433962278" y="86.9811320754718" as="targetPoint" />
          </mxGeometry>
        </mxCell>
        <mxCell id="fDg9fR9CH7GSIyTaq-c--80" value="" style="endArrow=none;html=1;rounded=0;" parent="1" source="fDg9fR9CH7GSIyTaq-c--68" target="fDg9fR9CH7GSIyTaq-c--27" edge="1">
          <mxGeometry relative="1" as="geometry">
            <mxPoint x="300" y="300" as="sourcePoint" />
            <mxPoint x="460" y="300" as="targetPoint" />
          </mxGeometry>
        </mxCell>
        <mxCell id="fDg9fR9CH7GSIyTaq-c--81" value="" style="endArrow=none;html=1;rounded=0;" parent="1" source="fDg9fR9CH7GSIyTaq-c--68" target="h8aALMjT6Rtvr6aibmoU-9" edge="1">
          <mxGeometry relative="1" as="geometry">
            <mxPoint x="300" y="300" as="sourcePoint" />
            <mxPoint x="116.8164588784523" y="173.9775311682322" as="targetPoint" />
          </mxGeometry>
        </mxCell>
        <mxCell id="fDg9fR9CH7GSIyTaq-c--82" value="" style="edgeStyle=entityRelationEdgeStyle;fontSize=12;html=1;endArrow=ERoneToMany;rounded=0;" parent="1" source="fDg9fR9CH7GSIyTaq-c--17" target="h8aALMjT6Rtvr6aibmoU-1" edge="1">
          <mxGeometry width="100" height="100" relative="1" as="geometry">
            <mxPoint x="330" y="330" as="sourcePoint" />
            <mxPoint x="670" y="420" as="targetPoint" />
          </mxGeometry>
        </mxCell>
        <mxCell id="fDg9fR9CH7GSIyTaq-c--83" value="" style="endArrow=none;html=1;rounded=0;" parent="1" source="fDg9fR9CH7GSIyTaq-c--59" target="h8aALMjT6Rtvr6aibmoU-1" edge="1">
          <mxGeometry relative="1" as="geometry">
            <mxPoint x="340" y="480" as="sourcePoint" />
            <mxPoint x="670" y="427.1428571428571" as="targetPoint" />
          </mxGeometry>
        </mxCell>
        <mxCell id="fDg9fR9CH7GSIyTaq-c--84" value="" style="endArrow=none;html=1;rounded=0;" parent="1" source="fDg9fR9CH7GSIyTaq-c--60" target="h8aALMjT6Rtvr6aibmoU-1" edge="1">
          <mxGeometry relative="1" as="geometry">
            <mxPoint x="340" y="480" as="sourcePoint" />
            <mxPoint x="601.6666666666667" y="400" as="targetPoint" />
          </mxGeometry>
        </mxCell>
        <mxCell id="fDg9fR9CH7GSIyTaq-c--85" value="" style="endArrow=none;html=1;rounded=0;" parent="1" source="h8aALMjT6Rtvr6aibmoU-1" target="h8aALMjT6Rtvr6aibmoU-7" edge="1">
          <mxGeometry relative="1" as="geometry">
            <mxPoint x="617.5" y="400" as="sourcePoint" />
            <mxPoint x="608.0015980825563" y="359.984019174437" as="targetPoint" />
          </mxGeometry>
        </mxCell>
        <mxCell id="fDg9fR9CH7GSIyTaq-c--86" value="" style="edgeStyle=entityRelationEdgeStyle;fontSize=12;html=1;endArrow=ERoneToMany;rounded=0;entryX=0;entryY=0.25;entryDx=0;entryDy=0;" parent="1" source="fDg9fR9CH7GSIyTaq-c--19" target="h8aALMjT6Rtvr6aibmoU-3" edge="1">
          <mxGeometry width="100" height="100" relative="1" as="geometry">
            <mxPoint x="460" y="650" as="sourcePoint" />
            <mxPoint x="570" y="800" as="targetPoint" />
          </mxGeometry>
        </mxCell>
        <mxCell id="fDg9fR9CH7GSIyTaq-c--88" value="" style="edgeStyle=entityRelationEdgeStyle;fontSize=12;html=1;endArrow=ERoneToMany;rounded=0;" parent="1" source="fDg9fR9CH7GSIyTaq-c--18" target="h8aALMjT6Rtvr6aibmoU-3" edge="1">
          <mxGeometry width="100" height="100" relative="1" as="geometry">
            <mxPoint x="280" y="828" as="sourcePoint" />
            <mxPoint x="580" y="818" as="targetPoint" />
            <Array as="points">
              <mxPoint x="570" y="828" />
            </Array>
          </mxGeometry>
        </mxCell>
        <mxCell id="fDg9fR9CH7GSIyTaq-c--90" value="" style="endArrow=none;html=1;rounded=0;" parent="1" source="fDg9fR9CH7GSIyTaq-c--19" target="fDg9fR9CH7GSIyTaq-c--54" edge="1">
          <mxGeometry relative="1" as="geometry">
            <mxPoint x="340" y="360" as="sourcePoint" />
            <mxPoint x="500" y="360" as="targetPoint" />
          </mxGeometry>
        </mxCell>
        <mxCell id="fDg9fR9CH7GSIyTaq-c--91" value="" style="endArrow=none;html=1;rounded=0;" parent="1" source="fDg9fR9CH7GSIyTaq-c--19" target="fDg9fR9CH7GSIyTaq-c--55" edge="1">
          <mxGeometry relative="1" as="geometry">
            <mxPoint x="340" y="360" as="sourcePoint" />
            <mxPoint x="500" y="360" as="targetPoint" />
          </mxGeometry>
        </mxCell>
        <mxCell id="fDg9fR9CH7GSIyTaq-c--92" value="" style="endArrow=none;html=1;rounded=0;" parent="1" source="fDg9fR9CH7GSIyTaq-c--19" target="fDg9fR9CH7GSIyTaq-c--56" edge="1">
          <mxGeometry relative="1" as="geometry">
            <mxPoint x="340" y="360" as="sourcePoint" />
            <mxPoint x="500" y="360" as="targetPoint" />
          </mxGeometry>
        </mxCell>
        <mxCell id="fDg9fR9CH7GSIyTaq-c--93" value="" style="edgeStyle=entityRelationEdgeStyle;fontSize=12;html=1;endArrow=ERoneToMany;rounded=0;exitX=0;exitY=0.5;exitDx=0;exitDy=0;" parent="1" source="h8aALMjT6Rtvr6aibmoU-1" target="fDg9fR9CH7GSIyTaq-c--68" edge="1">
          <mxGeometry width="100" height="100" relative="1" as="geometry">
            <mxPoint x="570" y="420" as="sourcePoint" />
            <mxPoint x="470" y="270" as="targetPoint" />
          </mxGeometry>
        </mxCell>
        <mxCell id="fDg9fR9CH7GSIyTaq-c--94" value="zamawiają" style="shape=rhombus;perimeter=rhombusPerimeter;whiteSpace=wrap;html=1;align=center;fillColor=#d5e8d4;strokeColor=#82b366;" parent="1" vertex="1">
          <mxGeometry x="630" y="230" width="120" height="60" as="geometry" />
        </mxCell>
        <mxCell id="h8aALMjT6Rtvr6aibmoU-3" value="Zawartosc" style="shape=ext;margin=3;double=1;whiteSpace=wrap;html=1;align=center;fillColor=#ffe6cc;strokeColor=#d79b00;" parent="1" vertex="1">
          <mxGeometry x="570" y="788" width="100" height="40" as="geometry" />
        </mxCell>
        <mxCell id="h8aALMjT6Rtvr6aibmoU-1" value="Zamowienia" style="whiteSpace=wrap;html=1;align=center;fillColor=#ffe6cc;strokeColor=#d79b00;" parent="1" vertex="1">
          <mxGeometry x="550" y="420" width="100" height="40" as="geometry" />
        </mxCell>
        <mxCell id="h8aALMjT6Rtvr6aibmoU-7" value="IDKlienta" style="ellipse;whiteSpace=wrap;html=1;align=center;fillColor=#dae8fc;strokeColor=#6c8ebf;" parent="1" vertex="1">
          <mxGeometry x="570" y="330" width="100" height="40" as="geometry" />
        </mxCell>
        <mxCell id="h8aALMjT6Rtvr6aibmoU-8" value="IDPudelka" style="ellipse;whiteSpace=wrap;html=1;align=center;fillColor=#dae8fc;strokeColor=#6c8ebf;" parent="1" vertex="1">
          <mxGeometry x="10" y="60" width="100" height="40" as="geometry" />
        </mxCell>
        <mxCell id="h8aALMjT6Rtvr6aibmoU-9" value="IDZamowienia" style="ellipse;whiteSpace=wrap;html=1;align=center;fillColor=#dae8fc;strokeColor=#6c8ebf;" parent="1" vertex="1">
          <mxGeometry x="10" y="170" width="100" height="40" as="geometry" />
        </mxCell>
        <mxCell id="h8aALMjT6Rtvr6aibmoU-11" value="Łączą z pudełkami" style="shape=rhombus;perimeter=rhombusPerimeter;whiteSpace=wrap;html=1;align=center;fillColor=#d5e8d4;strokeColor=#82b366;" parent="1" vertex="1">
          <mxGeometry x="300" y="230" width="110" height="60" as="geometry" />
        </mxCell>
        <mxCell id="h8aALMjT6Rtvr6aibmoU-13" value="" style="edgeStyle=entityRelationEdgeStyle;fontSize=12;html=1;endArrow=ERoneToMany;rounded=0;entryX=1;entryY=0.75;entryDx=0;entryDy=0;exitX=1;exitY=0.25;exitDx=0;exitDy=0;" parent="1" source="fDg9fR9CH7GSIyTaq-c--19" target="fDg9fR9CH7GSIyTaq-c--68" edge="1">
          <mxGeometry width="100" height="100" relative="1" as="geometry">
            <mxPoint x="240" y="250" as="sourcePoint" />
            <mxPoint x="460" y="190" as="targetPoint" />
          </mxGeometry>
        </mxCell>
        <mxCell id="h8aALMjT6Rtvr6aibmoU-16" value="" style="endArrow=none;html=1;rounded=0;" parent="1" source="fDg9fR9CH7GSIyTaq-c--18" target="fDg9fR9CH7GSIyTaq-c--43" edge="1">
          <mxGeometry relative="1" as="geometry">
            <mxPoint x="330" y="760" as="sourcePoint" />
            <mxPoint x="490" y="760" as="targetPoint" />
          </mxGeometry>
        </mxCell>
        <mxCell id="h8aALMjT6Rtvr6aibmoU-17" value="" style="endArrow=none;html=1;rounded=0;" parent="1" source="fDg9fR9CH7GSIyTaq-c--18" target="fDg9fR9CH7GSIyTaq-c--44" edge="1">
          <mxGeometry relative="1" as="geometry">
            <mxPoint x="330" y="760" as="sourcePoint" />
            <mxPoint x="490" y="760" as="targetPoint" />
          </mxGeometry>
        </mxCell>
        <mxCell id="h8aALMjT6Rtvr6aibmoU-18" value="" style="endArrow=none;html=1;rounded=0;" parent="1" source="fDg9fR9CH7GSIyTaq-c--18" target="fDg9fR9CH7GSIyTaq-c--41" edge="1">
          <mxGeometry relative="1" as="geometry">
            <mxPoint x="340" y="750" as="sourcePoint" />
            <mxPoint x="500" y="750" as="targetPoint" />
          </mxGeometry>
        </mxCell>
        <mxCell id="h8aALMjT6Rtvr6aibmoU-19" value="" style="endArrow=none;html=1;rounded=0;" parent="1" source="fDg9fR9CH7GSIyTaq-c--18" target="fDg9fR9CH7GSIyTaq-c--28" edge="1">
          <mxGeometry relative="1" as="geometry">
            <mxPoint x="340" y="750" as="sourcePoint" />
            <mxPoint x="500" y="750" as="targetPoint" />
          </mxGeometry>
        </mxCell>
        <mxCell id="h8aALMjT6Rtvr6aibmoU-20" value="" style="endArrow=none;html=1;rounded=0;" parent="1" source="fDg9fR9CH7GSIyTaq-c--18" target="fDg9fR9CH7GSIyTaq-c--42" edge="1">
          <mxGeometry relative="1" as="geometry">
            <mxPoint x="340" y="750" as="sourcePoint" />
            <mxPoint x="500" y="750" as="targetPoint" />
          </mxGeometry>
        </mxCell>
        <mxCell id="h8aALMjT6Rtvr6aibmoU-21" value="" style="endArrow=none;html=1;rounded=0;" parent="1" source="fDg9fR9CH7GSIyTaq-c--18" target="fDg9fR9CH7GSIyTaq-c--45" edge="1">
          <mxGeometry relative="1" as="geometry">
            <mxPoint x="340" y="750" as="sourcePoint" />
            <mxPoint x="500" y="750" as="targetPoint" />
          </mxGeometry>
        </mxCell>
        <mxCell id="h8aALMjT6Rtvr6aibmoU-22" value="" style="endArrow=none;html=1;rounded=0;" parent="1" source="fDg9fR9CH7GSIyTaq-c--65" target="h8aALMjT6Rtvr6aibmoU-3" edge="1">
          <mxGeometry relative="1" as="geometry">
            <mxPoint x="340" y="750" as="sourcePoint" />
            <mxPoint x="500" y="750" as="targetPoint" />
          </mxGeometry>
        </mxCell>
        <mxCell id="h8aALMjT6Rtvr6aibmoU-23" value="IDPudelka" style="ellipse;whiteSpace=wrap;html=1;align=center;fillColor=#dae8fc;strokeColor=#6c8ebf;" parent="1" vertex="1">
          <mxGeometry x="640" y="880" width="100" height="40" as="geometry" />
        </mxCell>
        <mxCell id="h8aALMjT6Rtvr6aibmoU-24" value="IDCzekoladki" style="ellipse;whiteSpace=wrap;html=1;align=center;fillColor=#dae8fc;strokeColor=#6c8ebf;" parent="1" vertex="1">
          <mxGeometry x="720" y="788" width="100" height="40" as="geometry" />
        </mxCell>
        <mxCell id="h8aALMjT6Rtvr6aibmoU-25" value="" style="endArrow=none;html=1;rounded=0;" parent="1" source="h8aALMjT6Rtvr6aibmoU-24" target="h8aALMjT6Rtvr6aibmoU-3" edge="1">
          <mxGeometry relative="1" as="geometry">
            <mxPoint x="340" y="750" as="sourcePoint" />
            <mxPoint x="500" y="750" as="targetPoint" />
          </mxGeometry>
        </mxCell>
        <mxCell id="h8aALMjT6Rtvr6aibmoU-26" value="" style="endArrow=none;html=1;rounded=0;" parent="1" source="h8aALMjT6Rtvr6aibmoU-3" target="h8aALMjT6Rtvr6aibmoU-23" edge="1">
          <mxGeometry relative="1" as="geometry">
            <mxPoint x="340" y="750" as="sourcePoint" />
            <mxPoint x="500" y="750" as="targetPoint" />
          </mxGeometry>
        </mxCell>
        <mxCell id="h8aALMjT6Rtvr6aibmoU-29" value="Mają w sobie" style="shape=rhombus;perimeter=rhombusPerimeter;whiteSpace=wrap;html=1;align=center;fillColor=#d5e8d4;strokeColor=#82b366;" parent="1" vertex="1">
          <mxGeometry x="354" y="600" width="120" height="60" as="geometry" />
        </mxCell>
        <mxCell id="h8aALMjT6Rtvr6aibmoU-30" value="Sa pakowane w" style="shape=rhombus;perimeter=rhombusPerimeter;whiteSpace=wrap;html=1;align=center;fillColor=#d5e8d4;strokeColor=#82b366;" parent="1" vertex="1">
          <mxGeometry x="170" y="250" width="120" height="60" as="geometry" />
        </mxCell>
        <mxCell id="h8aALMjT6Rtvr6aibmoU-31" value="Składają się na" style="shape=rhombus;perimeter=rhombusPerimeter;whiteSpace=wrap;html=1;align=center;fillColor=#d5e8d4;strokeColor=#82b366;" parent="1" vertex="1">
          <mxGeometry x="350" y="778" width="120" height="60" as="geometry" />
        </mxCell>
      </root>
    </mxGraphModel>
  </diagram>
</mxfile>
